<svg xmlns="http://www.w3.org/2000/svg" viewBox="0 0 1000 1000" width="1000" height="1000" role="img" aria-label="Lake Norman Ledger">
  <title>Lake Norman Ledger</title>

  <!-- Background -->
  <rect width="1000" height="1000" fill="#090E1A"/>

  <!-- Subtle grid background -->
  <line x1="0" y1="500" x2="1000" y2="500" stroke="#C9A84C" stroke-width="0.5" opacity="0.06"/>
  <line x1="500" y1="0" x2="500" y2="1000" stroke="#C9A84C" stroke-width="0.5" opacity="0.06"/>

  <!-- Gold corner accents -->
  <path d="M 60 60 L 60 120 M 60 60 L 120 60" stroke="#C9A84C" stroke-width="3" stroke-linecap="round" opacity="0.4"/>
  <path d="M 940 60 L 940 120 M 940 60 L 880 60" stroke="#C9A84C" stroke-width="3" stroke-linecap="round" opacity="0.4"/>
  <path d="M 60 940 L 60 880 M 60 940 L 120 940" stroke="#C9A84C" stroke-width="3" stroke-linecap="round" opacity="0.4"/>
  <path d="M 940 940 L 940 880 M 940 940 L 880 940" stroke="#C9A84C" stroke-width="3" stroke-linecap="round" opacity="0.4"/>

  <!-- Book icon: back cover -->
  <rect x="338" y="188" width="220" height="290" rx="16" fill="none" stroke="#C9A84C" stroke-width="6" opacity="0.35"/>

  <!-- Book icon: front cover -->
  <rect x="370" y="160" width="220" height="290" rx="16" fill="#162035" stroke="#C9A84C" stroke-width="6"/>

  <!-- Spine -->
  <line x1="370" y1="160" x2="370" y2="450" stroke="#C9A84C" stroke-width="12" stroke-linecap="round"/>

  <!-- Ledger ruled lines -->
  <line x1="410" y1="215" x2="568" y2="215" stroke="#C9A84C" stroke-width="5" stroke-linecap="round"/>
  <line x1="410" y1="255" x2="568" y2="255" stroke="#C9A84C" stroke-width="5" stroke-linecap="round"/>
  <line x1="410" y1="295" x2="568" y2="295" stroke="#C9A84C" stroke-width="5" stroke-linecap="round"/>
  <line x1="410" y1="335" x2="568" y2="335" stroke="#C9A84C" stroke-width="5" stroke-linecap="round"/>
  <line x1="410" y1="375" x2="568" y2="375" stroke="#C9A84C" stroke-width="5" stroke-linecap="round"/>

  <!-- Column divider -->
  <line x1="528" y1="168" x2="528" y2="442" stroke="#C9A84C" stroke-width="3.5" opacity="0.4"/>

  <!-- Wordmark: LAKE NORMAN -->
  <text x="500" y="555"
        font-family="Georgia, 'Times New Roman', serif"
        font-size="68"
        font-weight="normal"
        fill="#EEE8D8"
        text-anchor="middle"
        letter-spacing="14">LAKE NORMAN</text>

  <!-- Gold divider rule -->
  <line x1="160" y1="590" x2="840" y2="590" stroke="#C9A84C" stroke-width="2" opacity="0.4"/>

  <!-- Wordmark: LEDGER -->
  <text x="500" y="670"
        font-family="Georgia, 'Times New Roman', serif"
        font-size="68"
        font-weight="normal"
        fill="#C9A84C"
        text-anchor="middle"
        letter-spacing="28">LEDGER</text>

  <!-- Tagline -->
  <text x="500" y="750"
        font-family="Georgia, 'Times New Roman', serif"
        font-size="26"
        fill="#4F637D"
        text-anchor="middle"
        letter-spacing="6"
        font-style="italic">Professional Bookkeeping</text>

  <!-- Bottom gold line -->
  <line x1="350" y1="788" x2="650" y2="788" stroke="#C9A84C" stroke-width="1.5" opacity="0.3" stroke-linecap="round"/>
</svg>
